<svg width="75" height="90" viewBox="0 0 75 90" fill="none" xmlns="http://www.w3.org/2000/svg">
<path d="M23.8645 58.9098L25.5288 49.3909H30.5473L30.3095 50.7897H27.0658L26.6327 53.2036H29.6811L29.4434 54.6024H26.395L25.6392 58.9184H23.873L23.8645 58.9098Z" fill="white"/>
<path d="M31.0057 53.3828C31.4983 50.9604 32.0077 49.1521 34.8354 49.1521C37.663 49.1521 37.5442 50.9518 37.196 53.3828L36.9583 54.7389C36.5167 57.2808 35.9987 59.1317 33.0946 59.1317C30.1906 59.1317 30.3264 57.2808 30.768 54.7389L31.0057 53.3828ZM32.4238 55.626C32.2964 56.4107 32.1351 57.6987 33.3494 57.6987C34.5637 57.6987 34.8524 56.3937 35.0137 55.481L35.4298 53.0416C35.5657 52.2824 35.8968 50.5936 34.5806 50.5936C33.1881 50.5936 33.0097 52.2569 32.8909 52.9904L32.4238 55.6346V55.626Z" fill="white"/>
<path d="M44.0486 55.5151C44.0147 55.6943 43.9637 55.8819 43.9128 56.061C43.5222 57.8011 42.7155 59.1317 40.737 59.1317C37.8329 59.1317 37.9688 57.2808 38.4103 54.7389L38.6481 53.3828C39.1406 50.9604 39.6501 49.1521 42.4777 49.1521C44.0571 49.1777 44.8044 49.988 44.6346 51.6171C44.6261 51.856 44.6091 52.1033 44.5496 52.3421H42.8089C42.8429 51.7365 43.0976 50.5936 42.2315 50.5936C40.8389 50.5936 40.6606 52.2569 40.5417 52.9904L40.0746 55.6346C39.9473 56.4193 39.7859 57.7072 41.0002 57.7072C41.9767 57.7072 42.1381 56.1293 42.2739 55.5237H44.0571L44.0486 55.5151Z" fill="white"/>
<path d="M50.7825 49.3823H52.5487L51.3854 56.0183C51.0202 58.1251 50.1626 59.1316 47.8444 59.1316C45.5263 59.1316 44.9998 58.1251 45.3649 56.0183L46.5283 49.3823H48.2945L47.1566 55.8733C46.9953 56.786 46.9019 57.6986 48.1077 57.6986C49.3135 57.6986 49.4748 56.786 49.6361 55.8733L50.774 49.3823H50.7825Z" fill="white"/>
<path d="M57.3716 52.2825C57.5329 51.4295 57.6009 50.5936 56.6243 50.5936C56.0299 50.5936 55.6139 50.8324 55.5035 51.4807C55.3761 52.2057 55.7837 52.4872 56.2762 52.8369C56.7942 53.2036 57.7452 53.9201 58.1613 54.3978C58.6538 54.9949 58.7387 55.5663 58.6029 56.3937C58.2887 58.1934 56.93 59.1402 55.2063 59.1402C53.0834 59.1402 52.523 57.9461 52.8287 56.2487L52.956 55.5493H54.7223L54.6204 56.1037C54.4166 57.0334 54.5864 57.7072 55.4525 57.7072C56.1998 57.7072 56.6159 57.3149 56.7432 56.5899C56.8451 56.0355 56.6583 55.6516 56.2592 55.336C55.461 54.611 54.3996 54.0907 53.8476 53.1354C53.6354 52.7004 53.5589 52.1801 53.6439 51.6769C53.9326 50.0477 54.994 49.1606 56.8706 49.1606C59.6898 49.1606 59.2312 51.3442 59.0784 52.2825H57.3716Z" fill="white"/>
<path d="M30.7 66.9362C30.7085 67.8915 30.5896 69.1112 30.4962 70.3224H30.5216C30.5811 70.0921 30.632 69.8618 30.7 69.64C30.9122 68.8297 31.133 68.0109 31.3963 67.2006L33.0181 62.0061H34.8523L31.4302 71.5251H29.3074L29.2564 67.7635C29.2394 66.7571 29.3583 65.742 29.4093 64.727H29.3838C29.0781 65.742 28.8403 66.7571 28.4752 67.7635L27.1845 71.5251H25.0616L24.9258 62.0061H26.7599L26.6495 67.2006C26.6326 68.0109 26.5731 68.8297 26.4882 69.64C26.4712 69.8703 26.4542 70.1006 26.4288 70.3224H26.4542C26.8109 69.1027 27.1081 67.883 27.4562 66.9362L29.1715 62.0146H30.6405L30.7254 66.9362H30.7Z" fill="white"/>
<path d="M33.3494 71.5336L37.2809 62.0146H39.667L40.151 71.5336H38.2574L38.2065 69.1198H36.1346L35.2514 71.5336H33.3579H33.3494ZM36.661 67.7209H38.181V65.017C38.1725 64.5735 38.2065 64.1385 38.2319 63.695C38.2574 63.4817 38.2659 63.26 38.2829 63.0638H38.2574C38.198 63.2685 38.13 63.4817 38.0791 63.695C37.9517 64.1385 37.8413 64.5735 37.663 65.017L36.661 67.7209Z" fill="white"/>
<path d="M41.1277 71.5336L42.792 62.0146H44.5582L43.1317 70.1433H46.4179L46.1801 71.5421H41.1277V71.5336Z" fill="white"/>
<path d="M47.4453 71.5336L49.1096 62.0146H50.8759L49.4493 70.1433H52.7355L52.4977 71.5421H47.4453V71.5336Z" fill="white"/>
<path d="M25.5543 84.1574H23.7881L25.4524 74.6384H28.2716L28.4499 79.0567C28.4754 79.7817 28.4499 80.5153 28.3904 81.2574H28.4159C28.6707 80.3191 28.849 79.6794 29.0867 79.0567L30.802 74.6384H33.6042L31.9399 84.1574H30.1737L30.7086 81.1635C31.0398 79.27 31.4049 77.3764 31.8465 75.4914H31.821L28.4074 84.1659H27.329L26.9894 75.4914H26.9299C26.7176 77.3849 26.4289 79.2785 26.0978 81.1635L25.5628 84.1574H25.5543Z" fill="white"/>
<path d="M32.8826 84.1574L36.8141 74.6384H39.2002L39.6842 84.1574H37.7906L37.7397 81.7435H35.6678L34.7847 84.1574H32.8911H32.8826ZM36.1942 80.3447H37.7142V77.6408C37.7057 77.1973 37.7397 76.7623 37.7651 76.3187C37.7906 76.1055 37.7991 75.8837 37.8161 75.6876H37.7906C37.7312 75.8923 37.6632 76.1055 37.6123 76.3187C37.4849 76.7623 37.3745 77.1973 37.1962 77.6408L36.1942 80.3447Z" fill="white"/>
<path d="M43.123 80.0547L42.4012 84.1574H40.635L42.2993 74.6384H45.645C47.1734 74.6384 48.2518 75.1758 47.9292 76.9243C47.7508 77.9649 47.3008 79.0567 46.0865 79.2188L46.0695 79.2444C47.097 79.3809 47.2923 80.0547 47.131 80.9673C47.0715 81.3597 46.596 83.6968 46.9781 83.9783L46.9526 84.1574H45.0081C44.8977 83.5518 45.144 82.3833 45.2374 81.7435C45.3393 81.1635 45.4921 80.3618 44.9062 80.1826C44.4477 80.0462 43.9297 80.0547 43.4287 80.0547H43.1145H43.123ZM43.3608 78.6558H44.7534C45.3478 78.6217 45.8657 78.2379 46.0271 77.2826C46.2139 76.2164 45.8148 76.0373 45.144 76.0287H43.8278L43.3608 78.6558Z" fill="white"/>
<path d="M48.3793 84.1574L50.0437 74.6384H51.8099L51.0796 78.8691H51.1051C51.5127 78.1185 52.1156 77.2826 52.6081 76.5832L53.9837 74.6384H55.9792L52.9223 78.7241L54.4252 84.1574H52.4298L51.4193 80.3959L50.6211 81.4279L50.1371 84.1574H48.3708H48.3793Z" fill="white"/>
<path d="M55.3591 84.1574L57.0319 74.6384H62.0079L61.7702 76.0373H58.5604L58.1443 78.4341H61.0993L60.8446 79.8329H57.8896L57.3716 82.7671H60.5814L60.3436 84.1659H55.3676L55.3591 84.1574Z" fill="white"/>
<path d="M62.7553 74.6384H68.6569L68.4191 76.0373H66.3557L64.9291 84.1659H63.1629L64.5895 76.0373H62.5176L62.7553 74.6384Z" fill="white"/>
<path fill-rule="evenodd" clip-rule="evenodd" d="M75 59.094L73.3781 59.9406L73.03 17.789L17.3516 47.0445L17.7592 89.1534L16.1628 90V89.9743L16.1543 89.9914L11.4076 87.845L11.4161 87.8279L11.3991 87.8364L11 43.9317L69.8372 13V13.0086L69.8457 13L74.5924 15.155L75 59.094Z" fill="white"/>
</svg>
